<svg height="512pt" viewBox="0 0 512 512" width="512pt" xmlns="http://www.w3.org/2000/svg"><path d="m482 256c0 15.300781-1.5 30.601562-4.5 45h-43.902344c-56.695312 0-102.597656 45.902344-102.597656 102.597656v64.203125c-23.402344 8.695313-48.601562 13.199219-75 13.199219s-51.597656-4.503906-75-13.199219v-64.203125c0-56.695312-46.902344-102.597656-103.597656-102.597656h-42.902344c-3-14.398438-4.5-29.699219-4.5-45 0-26.398438 4.5-51.597656 13.199219-75h424.601562c8.699219 23.402344 14.199219 48.601562 14.199219 75zm0 0" fill="#676e74"/><path d="m482 256c0 15.300781-1.5 30.601562-4.5 45h-43.902344c-56.695312 0-102.597656 45.902344-102.597656 102.597656v64.203125c-23.402344 8.695313-48.601562 13.199219-75 13.199219v-300h211.800781c8.699219 23.402344 14.199219 48.601562 14.199219 75zm0 0" fill="#474f54"/><path d="m256 0c-140.699219 0-256 115.300781-256 256s115.300781 256 256 256 256-115.300781 256-256-115.300781-256-256-256zm0 451c-107.402344 0-196-87.597656-196-195s88.597656-195 196-195 195 87.597656 195 195-87.597656 195-195 195zm0 0" fill="#474f54"/><path d="m241 271h30v30h-30zm0 0" fill="#ff6c6c"/><path d="m211 301h30v30h-30zm0 0" fill="#ff6c6c"/><path d="m151 241h60v30h-60zm0 0" fill="#e1ebf0"/><path d="m241 331h30v30h-30zm0 0" fill="#ff6c6c"/><path d="m271 301h30v30h-30zm0 0" fill="#e63950"/><path d="m301 241h60v30h-60zm0 0" fill="#b4d2d7"/><path d="m256 271h15v30h-15zm0 0" fill="#e63950"/><path d="m256 331h15v30h-15zm0 0" fill="#e63950"/><path d="m512 256c0 140.699219-115.300781 256-256 256v-61c107.402344 0 195-87.597656 195-195s-87.597656-195-195-195v-61c140.699219 0 256 115.300781 256 256zm0 0" fill="#32393f"/></svg>